<svg width="100" height="100" viewBox="0 0 100 100" fill="none" xmlns="http://www.w3.org/2000/svg">
<g id="Group 1">
<circle id="Ellipse 4" cx="50" cy="50" r="49.5" stroke="black"/>
<path id="Arrow 1" d="M52.5 25C52.5 23.6193 51.3807 22.5 50 22.5C48.6193 22.5 47.5 23.6193 47.5 25H52.5ZM48.2322 76.7709C49.2085 77.7472 50.7915 77.7472 51.7678 76.7709L67.6777 60.861C68.654 59.8847 68.654 58.3018 67.6777 57.3255C66.7014 56.3492 65.1184 56.3492 64.1421 57.3255L50 71.4676L35.8579 57.3255C34.8816 56.3492 33.2986 56.3492 32.3223 57.3255C31.346 58.3018 31.346 59.8847 32.3223 60.861L48.2322 76.7709ZM47.5 25L47.5 75.0032H52.5L52.5 25H47.5Z" fill="black"/>
</g>
</svg>
