<svg width="48" height="39" viewBox="0 0 48 39" fill="none" xmlns="http://www.w3.org/2000/svg">
<g filter="url(#filter0_i_11:46)">
<path fill-rule="evenodd" clip-rule="evenodd" d="M11.5 2C11.5 1.17157 10.8284 0.5 10 0.5C9.17157 0.5 8.5 1.17157 8.5 2V8.5H2C1.17157 8.5 0.5 9.17157 0.5 10C0.5 10.8284 1.17157 11.5 2 11.5H8.5V18C8.5 18.8284 9.17157 19.5 10 19.5C10.8284 19.5 11.5 18.8284 11.5 18V11.5H18C18.8284 11.5 19.5 10.8284 19.5 10C19.5 9.17157 18.8284 8.5 18 8.5H11.5V2ZM28.5 10C28.5 9.17157 29.1716 8.5 30 8.5H46C46.8284 8.5 47.5 9.17157 47.5 10C47.5 10.8284 46.8284 11.5 46 11.5H30C29.1716 11.5 28.5 10.8284 28.5 10ZM16 35.5C15.1716 35.5 14.5 36.1716 14.5 37C14.5 37.8284 15.1716 38.5 16 38.5H32C32.8284 38.5 33.5 37.8284 33.5 37C33.5 36.1716 32.8284 35.5 32 35.5H16ZM16.9347 18.0498C17.5178 17.4614 18.4676 17.4572 19.056 18.0404L23.949 22.8903L28.8692 17.9423C29.4534 17.3549 30.4031 17.3522 30.9905 17.9364C31.578 18.5205 31.5806 19.4702 30.9965 20.0577L26.0796 25.0022L31.056 29.9347C31.6443 30.5178 31.6485 31.4676 31.0653 32.056C30.4822 32.6443 29.5324 32.6485 28.944 32.0653L23.9643 27.1295L19.0636 32.0577C18.4795 32.6451 17.5297 32.6478 16.9423 32.0636C16.3549 31.4795 16.3522 30.5297 16.9364 29.9423L21.8336 25.0175L16.944 20.1711C16.3557 19.5879 16.3515 18.6381 16.9347 18.0498ZM40 4C40 5.10457 39.1046 6 38 6C36.8954 6 36 5.10457 36 4C36 2.89543 36.8954 2 38 2C39.1046 2 40 2.89543 40 4ZM38 18C39.1046 18 40 17.1046 40 16C40 14.8954 39.1046 14 38 14C36.8954 14 36 14.8954 36 16C36 17.1046 36.8954 18 38 18Z" fill="black"/>
</g>
<defs>
<filter id="filter0_i_11:46" x="0.5" y="0.5" width="48" height="39" filterUnits="userSpaceOnUse" color-interpolation-filters="sRGB">
<feFlood flood-opacity="0" result="BackgroundImageFix"/>
<feBlend mode="normal" in="SourceGraphic" in2="BackgroundImageFix" result="shape"/>
<feColorMatrix in="SourceAlpha" type="matrix" values="0 0 0 0 0 0 0 0 0 0 0 0 0 0 0 0 0 0 127 0" result="hardAlpha"/>
<feOffset dx="1" dy="1"/>
<feGaussianBlur stdDeviation="0.5"/>
<feComposite in2="hardAlpha" operator="arithmetic" k2="-1" k3="1"/>
<feColorMatrix type="matrix" values="0 0 0 0 0 0 0 0 0 0 0 0 0 0 0 0 0 0 0.25 0"/>
<feBlend mode="normal" in2="shape" result="effect1_innerShadow_11:46"/>
</filter>
</defs>
</svg>
